# xmcd
# Track frame offsets:
# 150
# 22094
# 37569
# 56413
# 76000
# 92202
# 112553
# 130515
# 146822
# 170438
# 193287
# 213208
#
# Disc length: 3018 seconds
# Revision: 0
# Processed by: cddbd v1.5.2PL0 Copyright (c) Steve Scherf et al.
# Submitted via: VisiTrax 2.11.3.279 - For more info visit www.synapsa.com
#
DISCID=910bc80c
DTITLE=My Darling Clementine - The Reconciliation
DYEAR=2013
DGENRE=
TTITLE0=Unhappily Ever After
TTITLE1=No Heart In This Heartache
TTITLE2=I Can't Live With You (When You Can't Live With Yourself)
TTITLE3=Our Race Is Run
TTITLE4=Leave The Good Book On The Shelf
TTITLE5=No Matter What Tammy Said ( I Won't Stand By Him)
TTITLE6=I No Longer Take Pride
TTITLE7=King Of The Carnival
TTITLE8=The Gospel According To George
TTITLE9=Ashes, Flowers and Dust
TTITLE10=Let's Be Unhappy
TTITLE11=Miracle Mabel
EXTD=
EXTT0=
EXTT1=
EXTT2=
EXTT3=
EXTT4=
EXTT5=
EXTT6=
EXTT7=
EXTT8=
EXTT9=
EXTT10=
EXTT11=
PLAYORDER=
